<svg width="110" height="110" xmlns="http://www.w3.org/2000/svg">
    <g>
        <rect id="svg_1" fill="#F38F19" height="100%" width="100%" rx="15" ry="15"/>
        <path stroke="null" id="svg_2" d="m34.40451,97.54163c-1.62706,0.046 -0.23069,-1.024 2.96628,-1.709c8.07306,-2.038 8.87434,-7.711 5.26499,-10.59c-4.07787,-3.032 -10.33298,1.87 -12.48471,2.927c-2.18643,1.24 -8.03835,3.206 -12.47858,-5.587c-3.90434,-8.73 5.00981,-16.619 8.39357,-19c3.31946,-2.335 6.41945,-7.786 7.16868,-9.485c-5.37931,-6.636 -5.28439,-10.283 -5.70697,-12.001c-0.19904,-0.33 -0.41238,-0.621 -0.6645,-0.817c-0.00408,-0.019 -0.00612,-0.035 -0.01021,-0.052l-1.52601,-1.349c0,0 -1.66789,-1.32 -1.42292,-1.805c0.22865,-0.451 2.64679,0.906 2.64679,0.906s-1.70668,-2.34 -1.30247,-2.678c0.42055,-0.353 1.94656,1.03 1.94656,1.03l0.63592,0.811l-0.18884,-1.182c0,0 -0.33991,-2.009 0.19292,-2.161c0.53181,-0.149 1.03197,1.608 1.03197,1.608l0.44913,1.497l0.61959,-1.317c0,0 0.51752,-2.015 1.05545,-1.885c0.53691,0.129 0.27968,2.151 0.27968,2.151l-0.11534,1.894l0.9595,-0.503c0,0 1.81794,-1.406 2.25482,-1.075c0.4379,0.331 -1.33309,2.215 -1.33309,2.215l-0.91561,1.241c-0.19598,0.442 -0.26641,1.415 -0.22456,1.855c0.99216,2.948 3.53177,7.552 4.33509,6.261c1.83019,-4.625 11.18938,-11.552 13.58405,-12.41c2.01188,-1.031 11.35781,-4.222 12.33364,-6.457c-0.4624,-0.948 -3.36437,-2.459 -5.9642,-4.119c-0.00102,-1.46 0.50323,-3.568 1.02993,-5.133c0.20313,-0.463 0.00102,-2 0.00102,-2s-2.02822,-2.675 -1.67912,-3c0.31643,-0.254 2.63556,0.723 2.63556,0.723s1.15752,-4.89 1.60563,-4.837c0.71452,0.102 1.16977,4.195 1.16977,4.195s2.41304,-3.426 3.09183,-3.273c0.49302,0.327 -1.4515,4.989 -1.4515,4.989s3.051,-0.129 3.24188,0.43c0.15822,0.513 -2.90299,1.929 -2.90299,1.929l-0.97175,0.385l-0.67165,0.695c-0.57672,1.386 -0.61653,1.885 -0.62367,3.668c1.90471,1.149 3.70223,1.479 5.6049,1.765c1.30451,-0.395 1.29226,-0.66 4.71787,-7.046s5.73249,-6.174 11.64361,-7.32c5.85498,-1.135 7.9914,-0.486 9.56844,1.063c0.03062,-0.025 0.04797,-0.039 0.04797,-0.039c1.37596,1.757 1.76078,3.908 -0.22354,9.482c-1.98534,5.572 -2.09354,7.841 -9.02643,10.273c-6.93391,2.431 -7.20032,2.38 -7.78214,3.59c0.0245,1.886 0.10616,3.676 1.00237,5.684c1.80365,0.243 2.31198,0.273 3.7941,-0.09l0.79822,-0.556l0.52364,-0.89c0,0 1.85673,-2.772 2.35485,-2.545c0.53895,0.262 -0.01837,3.206 -0.01837,3.206s4.98225,-1.237 5.24764,-0.715c0.05818,0.682 -3.74,2.544 -3.74,2.544s4.06766,1.014 4.07072,1.719c-0.00612,0.443 -5.10984,0.884 -5.10984,0.884s0.66246,2.386 0.36236,2.657c-0.37972,0.294 -2.79888,-2.047 -2.79888,-2.047s-1.52499,-0.412 -2.02005,-0.279c-1.65769,0.292 -3.85739,0.489 -5.3344,0.281c-1.3137,-2.753 -2.43447,-5.776 -3.33068,-6.358c-2.39466,0.634 -6.92574,9.253 -8.24862,11.062c-1.20244,2.204 -9.50924,10.315 -14.44045,11.443c-1.41679,0.598 2.88054,3.705 5.72126,5.08c0.44096,0.101 1.43312,0.167 1.90879,0.041l1.38107,-0.713c0,0 2.15173,-1.458 2.42631,-0.986c0.27254,0.472 -1.40148,2.036 -1.40148,2.036l-0.64205,0.863l1.9292,0.152c0,0 2.07823,0.033 2.13437,0.572c0.05716,0.537 -2.05169,0.761 -2.05169,0.761l-1.41781,0.416l1.44741,0.646c0,0 1.70872,0.729 1.48212,1.226c-0.2266,0.495 -2.20889,-0.114 -2.20889,-0.114l-1.16977,-0.349l0.73289,0.729c0,0 1.18304,1.675 0.76862,2.034c-0.39809,0.342 -2.52532,-1.639 -2.52532,-1.639s1.03401,2.534 0.54508,2.694c-0.52568,0.169 -1.62502,-1.631 -1.62502,-1.631l-1.15038,-1.673c-0.01735,-0.005 -0.03266,-0.009 -0.05002,-0.013c-0.16434,-0.274 -0.42871,-0.521 -0.73391,-0.762c-1.6832,-0.65 -5.39156,-1.069 -11.36699,-7.248c-0.91254,0.407 -1.57909,0.681 -2.15377,0.765c-4.31978,1.576 -12.18461,3.868 -15.34279,7.761c-3.31639,3.74 -3.57566,8.313 -1.14834,10.428c3.55831,4.012 8.7692,-2.904 15.08658,-3.695c3.65936,-0.161 6.63891,1.608 8.23739,5.63c0.79822,2.169 0.75637,4.108 -0.17965,5.815c-2.88054,5.603 -10.81681,6.498 -12.55207,6.421z" fill="#000000"/>
    </g>
</svg>